<svg width="14" height="14" viewBox="0 0 14 14" version="1.1" xmlns="http://www.w3.org/2000/svg" xmlns:xlink="http://www.w3.org/1999/xlink">
<title>clear</title>
<desc>Created using Figma</desc>
<g id="Canvas" transform="translate(-559 -393)">
<g id="clear">
<g id="Subtract">
<use xlink:href="#path0_fill" transform="translate(559 393)" fill="#CED4E0"/>
</g>
</g>
</g>
<defs>
<path id="path0_fill" fill-rule="evenodd" d="M 7 14C 10.866 14 14 10.866 14 7C 14 3.13401 10.866 0 7 0C 3.134 0 0 3.13401 0 7C 0 10.866 3.134 14 7 14ZM 4.85355 4.14645C 4.65829 3.95119 4.34171 3.95119 4.14645 4.14645C 3.95119 4.34171 3.95119 4.65829 4.14645 4.85355L 6.29289 7L 4.14645 9.14645C 3.95119 9.34171 3.95119 9.65829 4.14645 9.85355C 4.34171 10.0488 4.65829 10.0488 4.85355 9.85355L 7 7.70711L 9.14645 9.85355C 9.34171 10.0488 9.65829 10.0488 9.85355 9.85355C 10.0488 9.65829 10.0488 9.34171 9.85355 9.14645L 7.70711 7L 9.85355 4.85355C 10.0488 4.65829 10.0488 4.34171 9.85355 4.14645C 9.65829 3.95119 9.34171 3.95119 9.14645 4.14645L 7 6.29289L 4.85355 4.14645Z"/>
</defs>
</svg>
