<svg width="30" height="30" viewBox="0 0 30 30" version="1.1" xmlns="http://www.w3.org/2000/svg" xmlns:xlink="http://www.w3.org/1999/xlink">
<title>delete</title>
<desc>Created using Figma</desc>
<g id="Canvas" transform="translate(-158 -204)">
<g id="delete">
<g id="Vector (Stroke)">
<use xlink:href="#path0_fill" transform="translate(164 210)" fill="#33A5FF"/>
</g>
</g>
</g>
<defs>
<path id="path0_fill" fill-rule="evenodd" d="M 0 7.5C 0 3.35787 3.35786 0 7.5 0L 10.5 0C 14.6421 0 18 3.35786 18 7.5C 18 11.6421 14.6421 15 10.5 15L 9.41421 15L 6.70711 17.7071C 6.31658 18.0976 5.68342 18.0976 5.29289 17.7071C 4.90237 17.3166 4.90237 16.6834 5.29289 16.2929L 8.29289 13.2929C 8.48043 13.1054 8.73478 13 9 13L 10.5 13C 13.5376 13 16 10.5376 16 7.5C 16 4.46243 13.5376 2 10.5 2L 7.5 2C 4.46243 2 2 4.46243 2 7.5C 2 9.44612 3.01002 11.157 4.53919 12.136C 5.00432 12.4338 5.13997 13.0522 4.84218 13.5174C 4.5444 13.9825 3.92594 14.1182 3.46081 13.8204C 1.38167 12.4892 0 10.1563 0 7.5ZM 6.29289 4.79289C 6.68342 4.40237 7.31658 4.40237 7.70711 4.79289L 9 6.08579L 10.2929 4.79289C 10.6834 4.40237 11.3166 4.40237 11.7071 4.79289C 12.0976 5.18342 12.0976 5.81658 11.7071 6.20711L 10.4142 7.5L 11.7071 8.79289C 12.0976 9.18342 12.0976 9.81658 11.7071 10.2071C 11.3166 10.5976 10.6834 10.5976 10.2929 10.2071L 9 8.91421L 7.70711 10.2071C 7.31658 10.5976 6.68342 10.5976 6.29289 10.2071C 5.90237 9.81658 5.90237 9.18342 6.29289 8.79289L 7.58579 7.5L 6.29289 6.20711C 5.90237 5.81658 5.90237 5.18342 6.29289 4.79289Z"/>
</defs>
</svg>
