<svg width="30" height="30" viewBox="0 0 30 30" version="1.1" xmlns="http://www.w3.org/2000/svg" xmlns:xlink="http://www.w3.org/1999/xlink">
<title>delete</title>
<desc>Created using Figma</desc>
<g id="Canvas" transform="translate(-621 -343)">
<g id="delete">
<g id="Vector (Stroke)">
<use xlink:href="#path0_fill" transform="translate(627 349)" fill="#7D8FB2"/>
</g>
</g>
</g>
<defs>
<path id="path0_fill" fill-rule="evenodd" d="M 9.00001 2C 5.13401 2 2.00001 5.13401 2.00001 9C 1.9841 10.693 2.51346 12.1008 3.50265 13.334C 3.72468 13.6152 3.77932 13.9937 3.64589 14.3262C 3.43965 14.8376 3.1952 15.3529 2.91823 15.8584C 3.6964 15.7378 4.44668 15.5409 5.19077 15.27C 5.44361 15.1787 5.72258 15.193 5.96475 15.3098C 6.91615 15.7747 7.87484 16.007 9.00001 16C 12.866 16 16 12.866 16 9C 16 5.13401 12.866 2 9.00001 2ZM 5.80657e-06 9C 5.80657e-06 4.02944 4.02944 0 9.00001 0C 13.9706 0 18 4.02944 18 9C 18 13.9706 13.9706 18 9.00001 18C 7.78831 17.9938 6.54965 17.7278 5.48262 17.2836C 4.08663 17.7376 2.53697 17.9963 1.00001 18C 0.621138 18 0.274805 17.7859 0.10546 17.447C -0.0638849 17.1081 -0.027157 16.7025 0.200325 16.3996C 0.766814 15.6483 1.21292 14.8924 1.57762 14.0817C 0.619007 12.6508 0.0142219 10.8312 5.80657e-06 9ZM 6.2929 6.29289C 6.68342 5.90237 7.31659 5.90237 7.70711 6.29289L 9.00001 7.58579L 10.2929 6.29289C 10.6834 5.90237 11.3166 5.90237 11.7071 6.29289C 12.0976 6.68342 12.0976 7.31658 11.7071 7.70711L 10.4142 9L 11.7071 10.2929C 12.0976 10.6834 12.0976 11.3166 11.7071 11.7071C 11.3166 12.0976 10.6834 12.0976 10.2929 11.7071L 9.00001 10.4142L 7.70711 11.7071C 7.31659 12.0976 6.68342 12.0976 6.2929 11.7071C 5.90237 11.3166 5.90237 10.6834 6.2929 10.2929L 7.58579 9L 6.2929 7.70711C 5.90237 7.31658 5.90237 6.68342 6.2929 6.29289Z"/>
</defs>
</svg>
