<svg width="30" height="30" viewBox="0 0 30 30" version="1.1" xmlns="http://www.w3.org/2000/svg" xmlns:xlink="http://www.w3.org/1999/xlink">
<title>favorite</title>
<desc>Created using Figma</desc>
<g id="Canvas" transform="translate(-591 -343)">
<g id="favorite">
<g id="Star (Stroke)">
<use xlink:href="#path0_fill" transform="translate(596.649 349)" fill="#7D8FB2"/>
</g>
</g>
</g>
<defs>
<path id="path0_fill" fill-rule="evenodd" d="M 7.29117 1.27747C 8.1318 -0.425824 10.5606 -0.425824 11.4013 1.27747L 13.0473 4.6126L 16.7278 5.14741C 18.6075 5.42054 19.358 7.73051 17.9979 9.05634L 15.3346 11.6524L 15.9633 15.318C 16.2844 17.1901 14.3194 18.6178 12.6382 17.7339L 9.34622 16.0032L 6.05426 17.7339C 4.373 18.6178 2.40803 17.1901 2.72912 15.318L 3.35783 11.6524L 0.69457 9.05634C -0.665592 7.73051 0.0849634 5.42054 1.96466 5.14741L 5.64519 4.6126L 7.29117 1.27747ZM 3.37017 11.5804L 3.37013 11.5806L 3.37017 11.5804ZM 9.6078 2.1626C 9.5008 1.9458 9.19164 1.9458 9.08464 2.1626L 7.40635 5.56319C 7.13525 6.1125 6.61122 6.49323 6.00503 6.58131L 2.25226 7.12662C 2.013 7.16139 1.91747 7.45541 2.09059 7.62417L 4.80613 10.2712C 5.24477 10.6987 5.44493 11.3148 5.34138 11.9185L 4.70033 15.6561C 4.65946 15.8944 4.90958 16.0761 5.12357 15.9636L 8.48016 14.199C 9.02235 13.9139 9.67009 13.9139 10.2123 14.199L 13.5689 15.9636C 13.7829 16.0761 14.033 15.8944 13.9921 15.6561L 13.3511 11.9185C 13.2475 11.3148 13.4477 10.6987 13.8863 10.2712L 16.6018 7.62417C 16.775 7.45541 16.6794 7.16139 16.4402 7.12662L 12.6874 6.58131C 12.0812 6.49323 11.5572 6.1125 11.2861 5.56319L 9.6078 2.1626Z"/>
</defs>
</svg>
