<svg width="30" height="30" viewBox="0 0 30 30" version="1.1" xmlns="http://www.w3.org/2000/svg" xmlns:xlink="http://www.w3.org/1999/xlink">
<title>reply</title>
<desc>Created using Figma</desc>
<g id="Canvas" transform="translate(-531 -343)">
<g id="reply">
<g id="Vector (Stroke)">
<use xlink:href="#path0_fill" transform="translate(537 351)" fill="#7D8FB2"/>
</g>
</g>
</g>
<defs>
<path id="path0_fill" fill-rule="evenodd" d="M 5.70711 0.292893C 6.09763 0.683417 6.09763 1.31658 5.70711 1.70711L 3.41421 4L 9 4C 13.9706 4 18 8.02944 18 13C 18 13.5523 17.5523 14 17 14C 16.4477 14 16 13.5523 16 13C 16 9.13401 12.866 6 9 6L 3.41421 6L 5.70711 8.29289C 6.09763 8.68342 6.09763 9.31658 5.70711 9.70711C 5.31658 10.0976 4.68342 10.0976 4.29289 9.70711L 0.292893 5.70711C -0.0976311 5.31658 -0.0976311 4.68342 0.292893 4.29289L 4.29289 0.292893C 4.68342 -0.0976311 5.31658 -0.0976311 5.70711 0.292893Z"/>
</defs>
</svg>
